HIERARCHY
ROOT hip
{
  OFFSET 0 0 0
  CHANNELS 6 Xposition Yposition Zposition Zrotation Yrotation Xrotation
  JOINT abdomen
  {
    OFFSET 0 20.6881 -0.73152
    CHANNELS 3 Zrotation Xrotation Yrotation
    JOINT chest
    {
      OFFSET 0 11.7043 -0.48768
      CHANNELS 3 Zrotation Xrotation Yrotation
      JOINT neck
      {
        OFFSET 0 22.1894 -2.19456
        CHANNELS 3 Zrotation Xrotation Yrotation
        JOINT head
        {
          OFFSET -0.24384 7.07133 1.2192
          CHANNELS 3 Zrotation Xrotation Yrotation
          JOINT leftEye
          {
            OFFSET 4.14528 8.04674 8.04672
            CHANNELS 3 Zrotation Xrotation Yrotation
            End Site
            {
              OFFSET 1 0 0
            }
          }
          JOINT rightEye
          {
            OFFSET -3.6576 8.04674 8.04672
            CHANNELS 3 Zrotation Xrotation Yrotation
            End Site
            {
              OFFSET 1 0 0
            }
          }
        }
      }
      JOINT rCollar
      {
        OFFSET -2.68224 19.2634 -4.8768
        CHANNELS 3 Zrotation Xrotation Yrotation
        JOINT rShldr
        {
          OFFSET -8.77824 -1.95073 1.46304
          CHANNELS 3 Zrotation Xrotation Yrotation
          JOINT rForeArm
          {
            OFFSET -28.1742 -1.7115 0.48768
            CHANNELS 3 Zrotation Xrotation Yrotation
            JOINT rHand
            {
              OFFSET -22.5879 0.773209 7.07136
              CHANNELS 3 Zrotation Xrotation Yrotation
              JOINT rThumb1
              {
                OFFSET -1.2192 -0.487915 3.41376
                CHANNELS 3 Zrotation Xrotation Yrotation
                JOINT rThumb2
                {
                  OFFSET -3.37035 -0.52449 3.41376
                  CHANNELS 3 Zrotation Xrotation Yrotation
                  End Site
                  {
                    OFFSET -1.78271 -1.18214 1.43049
                  }
                }
              }
              JOINT rIndex1
              {
                OFFSET -7.75947 0.938293 5.60832
                CHANNELS 3 Zrotation Xrotation Yrotation
                JOINT rIndex2
                {
                  OFFSET -2.54057 -0.884171 1.56538
                  CHANNELS 3 Zrotation Xrotation Yrotation
                  End Site
                  {
                    OFFSET -1.62519 -0.234802 1.16502
                  }
                }
              }
              JOINT rMid1
              {
                OFFSET -8.24714 1.18213 3.41376
                CHANNELS 3 Zrotation Xrotation Yrotation
                JOINT rMid2
                {
                  OFFSET -3.10165 -0.590103 1.0647
                  CHANNELS 3 Zrotation Xrotation Yrotation
                  End Site
                  {
                    OFFSET -2.48547 -0.328903 0.83742
                  }
                }
              }
              JOINT rRing1
              {
                OFFSET -8.82822 0.546677 1.51678
                CHANNELS 3 Zrotation Xrotation Yrotation
                JOINT rRing2
                {
                  OFFSET -2.60934 -0.819778 -0.0198488
                  CHANNELS 3 Zrotation Xrotation Yrotation
                  End Site
                  {
                    OFFSET -2.33842 -0.294052 0.168128
                  }
                }
              }
              JOINT rPinky1
              {
                OFFSET -8.27202 -0.0477905 -0.4584
                CHANNELS 3 Zrotation Xrotation Yrotation
                JOINT rPinky2
                {
                  OFFSET -1.82734 -0.647385 -0.700984
                  CHANNELS 3 Zrotation Xrotation Yrotation
                  End Site
                  {
                    OFFSET -1.69225 -0.51767 -0.607171
                  }
                }
              }
            }
          }
        }
      }
      JOINT lCollar
      {
        OFFSET 2.68224 19.2634 -4.8768
        CHANNELS 3 Zrotation Xrotation Yrotation
        JOINT lShldr
        {
          OFFSET 8.77824 -1.95073 1.46304
          CHANNELS 3 Zrotation Xrotation Yrotation
          JOINT lForeArm
          {
            OFFSET 28.1742 -1.7115 0.48768
            CHANNELS 3 Zrotation Xrotation Yrotation
            JOINT lHand
            {
              OFFSET 22.5879 0.773209 7.07136
              CHANNELS 3 Zrotation Xrotation Yrotation
              JOINT lThumb1
              {
                OFFSET 1.2192 -0.487915 3.41376
                CHANNELS 3 Zrotation Xrotation Yrotation
                JOINT lThumb2
                {
                  OFFSET 3.37035 -0.52449 3.41376
                  CHANNELS 3 Zrotation Xrotation Yrotation
                  End Site
                  {
                    OFFSET 1.78271 -1.18214 1.43049
                  }
                }
              }
              JOINT lIndex1
              {
                OFFSET 7.75947 0.938293 5.60832
                CHANNELS 3 Zrotation Xrotation Yrotation
                JOINT lIndex2
                {
                  OFFSET 2.54057 -0.884171 1.56538
                  CHANNELS 3 Zrotation Xrotation Yrotation
                  End Site
                  {
                    OFFSET 1.62519 -0.234802 1.16502
                  }
                }
              }
              JOINT lMid1
              {
                OFFSET 8.24714 1.18213 3.41376
                CHANNELS 3 Zrotation Xrotation Yrotation
                JOINT lMid2
                {
                  OFFSET 3.10165 -0.590103 1.0647
                  CHANNELS 3 Zrotation Xrotation Yrotation
                  End Site
                  {
                    OFFSET 2.48547 -0.328903 0.83742
                  }
                }
              }
              JOINT lRing1
              {
                OFFSET 8.82822 0.546677 1.51678
                CHANNELS 3 Zrotation Xrotation Yrotation
                JOINT lRing2
                {
                  OFFSET 2.60934 -0.819778 -0.0198488
                  CHANNELS 3 Zrotation Xrotation Yrotation
                  End Site
                  {
                    OFFSET 2.33842 -0.294052 0.168128
                  }
                }
              }
              JOINT lPinky1
              {
                OFFSET 8.27202 -0.0477905 -0.4584
                CHANNELS 3 Zrotation Xrotation Yrotation
                JOINT lPinky2
                {
                  OFFSET 1.82734 -0.647385 -0.700984
                  CHANNELS 3 Zrotation Xrotation Yrotation
                  End Site
                  {
                    OFFSET 1.69225 -0.51767 -0.607171
                  }
                }
              }
            }
          }
        }
      }
    }
  }
  JOINT rButtock
  {
    OFFSET -8.77824 4.35084 1.2192
    CHANNELS 3 Zrotation Xrotation Yrotation
    JOINT rThigh
    {
      OFFSET 0 -1.70687 -2.19456
      CHANNELS 3 Zrotation Xrotation Yrotation
      JOINT rShin
      {
        OFFSET 0 -36.8199 0.73152
        CHANNELS 3 Zrotation Xrotation Yrotation
        JOINT rFoot
        {
          OFFSET 0.73152 -45.1104 -5.12064
          CHANNELS 3 Zrotation Xrotation Yrotation
          End Site
          {
            OFFSET -1.1221 -3.69964 12.103
          }
        }
      }
    }
  }
  JOINT lButtock
  {
    OFFSET 8.77824 4.35084 1.2192
    CHANNELS 3 Zrotation Xrotation Yrotation
    JOINT lThigh
    {
      OFFSET 0 -1.70687 -2.19456
      CHANNELS 3 Zrotation Xrotation Yrotation
      JOINT lShin
      {
        OFFSET 0 -36.8199 0.73152
        CHANNELS 3 Zrotation Xrotation Yrotation
        JOINT lFoot
        {
          OFFSET -0.73152 -45.1104 -5.12064
          CHANNELS 3 Zrotation Xrotation Yrotation
          End Site
          {
            OFFSET 1.1221 -3.69964 12.103
          }
        }
      }
    }
  }
}
MOTION
Frames:	5
Frame Time:	0.03333
116.1756 -1.2206 -11.171899999999999 -156.267356 -3.163562 -65.414295 98.533745 -8.357821 -55.469587 160.94499 16.196601 146.435615 120.136196 -43.431404 143.379951 164.685514 -1.164568 -163.96094 41.84665 15.373097 38.887122 -16.935483 -1.331583 8.926579 -74.214108 6.838025 31.329669 31.36625 8.572553 -1.691055 83.900135 60.44844 93.472773 -88.909104 79.205484 -143.35592 173.634472 43.27363 -64.63121 8.799585 -83.15247 153.360888 -137.021214 16.408539 104.24781 177.253475 -26.827569 -29.079015 -131.760857 -10.85406 104.156445 -153.162076 42.196903 25.345879 86.97712 17.228434 88.453988 48.130386 -48.817584 -163.123646 -167.414251 27.31817 125.125365 177.041563 -6.68715 58.187269 -44.188245 -60.015292 74.251661 34.198251 -64.615412 -151.047115 86.251683 -21.874478 -60.418453 -87.110439 -39.134106 166.021428 176.814727 25.091297 117.282263 117.111864 64.233085 17.569252 167.192624 65.047731 130.015925 -59.703128 -73.51053 178.852329 -179.103658 13.663712 12.098437 71.459124 -70.875257 174.107788 114.681611 25.488991 150.932073 80.131646 50.539346 61.412285 9.208822 29.828681 -152.427149 55.030194 -32.916561 -148.554452 92.066019 19.759867 132.908504 167.611792 -56.49741 -0.0 -101.56359 -21.690075 -1.81809 -88.804358 -24.945947 7.439889 -86.078061 2.242944 -76.087219 -55.000806 -15.991171 180.0 -160.995858 -14.447434 57.074215 -97.601586 -35.593846 -151.668425
118.4889 -1.2314 -11.535 -156.958127 -2.957907 -65.124872 98.047662 -9.785524 -60.946512 162.646619 17.411161 140.736034 106.807374 -39.372095 -162.499425 166.114911 -21.902589 -103.081545 42.137698 15.471937 38.84736 -16.712445 -1.325533 9.006011 107.772518 -43.165341 130.428403 88.857009 -86.391615 98.194276 160.953933 -60.213534 -70.112173 2.750593 4.886064 146.13358 -8.987656 -0.449459 153.207032 -107.69562 -2.800648 -82.26274 144.782579 -65.054397 97.614567 106.829488 -60.149133 -168.77316 133.788963 -42.511952 69.952168 -123.2947 -14.883193 -77.494812 86.799873 17.945292 88.185385 -156.537284 28.630866 -9.651724 -78.856405 -5.474309 63.134649 165.555772 -4.846975 29.541901 52.374165 -18.80621 168.186468 -146.829015 -22.810772 29.413554 -106.071638 -25.514319 113.835465 -40.840467 65.718157 -70.947301 3.869634 -11.100535 155.169012 38.086515 60.581624 -115.627599 -2.299722 -32.785544 121.645719 -173.868441 -6.236948 95.464584 -175.05741 35.631924 5.402364 -154.583421 -77.108613 -47.692178 -35.888706 -5.935119 34.962161 -55.34474 40.82465 -97.413981 -126.496911 -45.532235 -40.598805 108.32155 64.686909 10.669758 102.39457 4.389325 116.271452 165.601164 -54.804116 -145.456547 105.311015 -35.360335 -179.358988 90.820829 3.61425 3.591608 19.000768 13.322121 85.538796 113.347773 27.345665 45.176422 166.087719 16.322831 -85.213087 25.030648 52.22806 150.874614
120.81219999999999 -1.2293 -11.8787 -156.778761 -3.127731 -65.292583 98.763288 -10.32338 -88.417628 171.920804 23.987855 112.208658 93.965136 -53.533686 -56.397512 -159.17266 -16.604196 22.297088 42.218846 15.34366 38.470262 -16.472422 -1.259995 8.688452 -13.398236 -55.422242 41.504832 61.499115 76.118987 -56.696334 60.673932 52.514377 107.79836 -26.473791 66.139942 158.607088 -123.419516 77.975619 -118.264833 54.768632 -41.456133 135.429832 -105.721506 36.329757 78.588741 159.858777 52.251631 -37.972917 15.471277 6.492228 42.408384 171.976971 77.403566 -74.726448 6.66753 -10.591062 126.169208 -80.663685 87.81238 -95.20603 -167.533806 27.810253 126.149532 140.779961 25.553182 79.368065 -99.639188 14.767165 22.683455 -40.433808 1.98652 -165.912219 109.769143 31.727991 124.922139 -57.814313 -31.898549 -159.788214 108.24381 30.221912 146.36113 -89.570673 61.434935 147.520269 85.750832 23.880181 173.964798 132.868389 18.783385 54.776239 -24.470684 -65.582063 -170.828425 132.904876 -50.384733 106.838074 113.820818 25.08861 151.626742 -94.068218 -29.552095 130.908027 -136.954671 -62.682112 -42.927775 -66.305652 64.642833 156.166124 -1.124963 -26.546612 -91.301218 -166.288108 -47.226213 10.33975 102.156824 10.028976 165.29878 -152.978934 -31.227792 -17.187604 14.562299 -5.19579 70.781286 140.155632 38.437473 -126.684856 -174.21206 -10.924251 -110.405862 -112.783884 -39.47705 -43.566939
123.1339 -1.2187999999999999 -12.183 -156.119049 -3.465608 -65.638405 99.462855 -10.009366 -115.183496 -176.211982 25.802622 82.876075 103.019565 -39.268349 -149.904901 170.007621 -25.68412 -86.157477 42.120641 15.091872 37.96731 -16.357584 -1.184119 8.224956 107.220229 -41.610807 130.669925 165.519942 -29.197554 174.552771 -178.232358 76.329064 16.327649 175.602213 17.881961 -65.661573 -6.165165 -7.552762 152.57739 148.788767 5.685602 -173.392027 -2.929875 -11.004074 -1.098519 -177.113731 4.0534 -109.263034 28.357254 -0.854117 38.206372 -112.930947 59.154292 -144.269291 -79.7677 -50.654306 102.504447 9.702236 -27.956463 169.449391 176.421056 21.14735 138.721409 168.591416 9.600637 66.393564 58.37941 0.862067 173.715744 68.658154 56.021855 117.265437 -111.544476 17.925418 -32.336429 -87.373235 73.625411 -15.480235 12.004782 -6.15204 157.541284 -74.421875 10.395288 54.987667 -151.265477 62.764166 97.351598 -54.427673 -75.194629 175.204515 -24.807475 24.443433 -150.346485 157.640351 32.990913 -65.981203 -34.630291 -6.227718 38.464449 -140.483094 13.86879 -37.176656 49.897859 -35.534637 178.887779 -57.847539 -35.174414 -146.840256 106.763557 -5.488793 106.10401 164.272976 -52.873551 -180.0 102.48963 -30.477958 20.474543 102.871147 10.984134 175.222847 -26.734085 -39.044997 11.043278 -132.643266 37.518298 -147.924788 -163.04475 2.190488 176.870814 91.339184 -28.102049 136.9327
125.4448 -1.2043 -12.4486 -155.363667 -3.791465 -65.976008 100.689959 -7.507348 -88.587172 172.064462 25.722396 112.575215 108.65965 -38.676467 -171.506247 164.09724 -18.61499 -111.881945 41.872404 14.807735 37.520187 -16.408075 -1.12302 7.777617 -54.055429 -21.930374 26.616202 25.385077 -3.154181 -17.482775 167.409049 3.98275 8.47856 -177.038629 43.680896 -65.074591 23.412966 -55.209154 174.96748 -86.744092 1.999854 -138.467125 4.876187 -21.432531 -4.639023 -107.721409 14.123626 -109.844846 -44.623266 24.405277 71.187542 39.892279 48.664545 82.965001 93.467175 15.19401 81.764282 -153.055383 41.220599 -9.036247 -28.398286 -51.136571 67.894476 91.323763 -72.780039 -89.965388 -120.413934 76.951527 23.539104 107.42421 59.720789 35.012699 140.14633 24.37857 -29.155512 -134.544933 -13.271507 107.740387 2.665398 -7.671232 155.506202 -77.896122 54.710814 22.48498 147.204896 62.766525 144.998029 -34.660115 -18.811569 -149.884678 -133.775688 71.691769 -37.314235 -15.518777 21.923486 -69.052042 84.12536 -14.51246 133.023419 50.636346 45.778652 120.467051 85.461764 -74.327666 -164.515374 -80.858949 -68.398092 162.432034 0.052651 -26.564474 -89.285615 -167.243246 -46.546534 9.508133 105.890367 3.558706 97.424219 34.903694 59.195603 70.707182 -26.557339 -38.042928 11.806591 -132.900428 40.366914 34.075966 155.504099 4.193393 -86.707577 88.139517 67.353333 134.778528
